<svg width="287" height="82" viewBox="0 0 287 82" fill="none" xmlns="http://www.w3.org/2000/svg">
<g filter="url(#filter0_d_198_7369)">
<path d="M124.517 1.5V31.001L148.156 2.05176L148.605 1.5H170.694L168.604 3.96875L138.08 40.0332L169.676 77.1729L171.778 79.6445H149.143L148.692 79.0938L124.517 49.498V79.6445H59.4688V17.3818H40.5693V79.6445H23.3994V17.3818H1.5V1.5H124.517ZM248.902 1.5C256.853 1.5 263.813 6.85983 265.835 14.5508L282.451 77.7637L282.945 79.6445H265.226L264.944 78.5039L260.869 61.9902L249.479 18.1484C249.437 17.9885 249.366 17.9112 249.304 17.8662C249.23 17.8127 249.121 17.7737 248.995 17.7734C248.869 17.7732 248.761 17.812 248.687 17.8652C248.624 17.91 248.553 17.9867 248.511 18.1465L236.939 61.9717L232.86 78.5039L232.579 79.6445H214.859L215.354 77.7637L231.97 14.5508C233.991 6.85983 240.952 1.50004 248.902 1.5ZM76.6387 32.3096H100.327V48.1914H76.6387V63.7627H107.347V17.3818H76.6387V32.3096Z" fill="#87DE3C" stroke="#F3F4F6" stroke-width="3"/>
<path d="M205.572 1.5L205.122 2.05176L181.483 31.001V1.5H164.313V79.6445H181.483V49.499L205.659 79.0938L206.109 79.6445H228.745L226.643 77.1729L195.048 40.0332L225.571 3.96875L227.661 1.5H205.572Z" fill="#87DE3C" stroke="#F3F4F6" stroke-width="3"/>
</g>
<defs>
<filter id="filter0_d_198_7369" x="0" y="0" width="286.89" height="81.145" filterUnits="userSpaceOnUse" color-interpolation-filters="sRGB">
<feFlood flood-opacity="0" result="BackgroundImageFix"/>
<feColorMatrix in="SourceAlpha" type="matrix" values="0 0 0 0 0 0 0 0 0 0 0 0 0 0 0 0 0 0 127 0" result="hardAlpha"/>
<feOffset dx="2"/>
<feComposite in2="hardAlpha" operator="out"/>
<feColorMatrix type="matrix" values="0 0 0 0 0.952941 0 0 0 0 0.956863 0 0 0 0 0.964706 0 0 0 1 0"/>
<feBlend mode="normal" in2="BackgroundImageFix" result="effect1_dropShadow_198_7369"/>
<feBlend mode="normal" in="SourceGraphic" in2="effect1_dropShadow_198_7369" result="shape"/>
</filter>
</defs>
</svg>
